<svg id="0bff20f7-b05a-4f08-a006-a37219c144ba" data-name="Laag 2" xmlns="http://www.w3.org/2000/svg" viewBox="0 0 677.56 651.9"><defs><style>.\32 22539a6-80ba-4943-9888-3a780d69ed25{fill:#dd8c46;}.\37 915ada0-59db-4b0a-9352-53cc27245165,.\37 c3da1cf-477d-4653-8d15-d9cbe0ce4cb2,.\39 03567c5-4c96-4f17-a506-7eb7d638fc13,.fdaedd09-69d0-4443-b9a2-19b23e075b21{fill:#080f12;}.\37 915ada0-59db-4b0a-9352-53cc27245165,.\39 03567c5-4c96-4f17-a506-7eb7d638fc13,.fdaedd09-69d0-4443-b9a2-19b23e075b21{stroke:#ee964c;}.\37 915ada0-59db-4b0a-9352-53cc27245165,.\39 03567c5-4c96-4f17-a506-7eb7d638fc13,.f5a92e7a-4d9f-4b15-96ca-b384273f3259,.fdaedd09-69d0-4443-b9a2-19b23e075b21{stroke-miterlimit:10;}.fdaedd09-69d0-4443-b9a2-19b23e075b21{stroke-width:20px;}.\39 03567c5-4c96-4f17-a506-7eb7d638fc13{stroke-width:11px;}.\35 11cdd8a-14e5-4d52-8b4d-ecc2e351b5bb{fill:#ee964c;}.\37 915ada0-59db-4b0a-9352-53cc27245165{stroke-width:5px;}.d61ebc38-a97a-4fcd-a6e7-af63eee34353{fill:#50b36f;}.f5a92e7a-4d9f-4b15-96ca-b384273f3259{fill:none;stroke:#1d1d1b;}</style></defs><title>404-bg</title><rect class="222539a6-80ba-4943-9888-3a780d69ed25" x="631.45" y="517.08" width="30.53" height="75.76"/><polygon class="222539a6-80ba-4943-9888-3a780d69ed25" points="211.07 439.55 62.52 477.93 44.27 402.06 192.81 363.67 211.07 439.55"/><polygon class="222539a6-80ba-4943-9888-3a780d69ed25" points="660.22 594.21 539.59 634.83 513.84 552.69 634.47 512.07 660.22 594.21"/><rect class="222539a6-80ba-4943-9888-3a780d69ed25" x="520.81" y="559.07" width="30.53" height="75.76"/><polygon class="222539a6-80ba-4943-9888-3a780d69ed25" points="647.01 577 173.27 445.45 192.56 370.86 666.29 502.41 647.01 577"/><polygon class="222539a6-80ba-4943-9888-3a780d69ed25" points="646.89 511.62 665.72 589.87 633.14 598.29 614.31 520.04 646.89 511.62"/><line class="fdaedd09-69d0-4443-b9a2-19b23e075b21" x1="514.06" y1="644.12" x2="518.77" y2="194.73"/><line class="fdaedd09-69d0-4443-b9a2-19b23e075b21" x1="51.44" y1="481.94" x2="44.93" y2="93.65"/><line class="fdaedd09-69d0-4443-b9a2-19b23e075b21" x1="528.39" y1="200.55" x2="45.07" y2="102.61"/><line class="903567c5-4c96-4f17-a506-7eb7d638fc13" x1="668.19" y1="593.84" x2="505.87" y2="646.67"/><line class="903567c5-4c96-4f17-a506-7eb7d638fc13" x1="665.45" y1="510.28" x2="515.58" y2="556.34"/><line class="903567c5-4c96-4f17-a506-7eb7d638fc13" x1="663.72" y1="504.41" x2="663.72" y2="597.07"/><line class="903567c5-4c96-4f17-a506-7eb7d638fc13" x1="191.77" y1="444.53" x2="48.19" y2="479.57"/><line class="903567c5-4c96-4f17-a506-7eb7d638fc13" x1="191.77" y1="365.56" x2="56.81" y2="398.5"/><line class="903567c5-4c96-4f17-a506-7eb7d638fc13" x1="666.54" y1="504.41" x2="192.86" y2="365.56"/><line class="903567c5-4c96-4f17-a506-7eb7d638fc13" x1="537.07" y1="549.94" x2="189.22" y2="444.66"/><line class="7c3da1cf-477d-4653-8d15-d9cbe0ce4cb2" x1="194.36" y1="69.16" x2="41.22" y2="96.7"/><path class="511cdd8a-14e5-4d52-8b4d-ecc2e351b5bb" d="M543,225.11,408.88,249.23l-19,3.42c-3.79.68-2.18,6.47,1.6,5.79l134.14-24.13,19-3.42c3.8-.68,2.19-6.46-1.59-5.78Z" transform="translate(-349.47 -158.84)"/><line class="7c3da1cf-477d-4653-8d15-d9cbe0ce4cb2" x1="191.77" y1="365.56" x2="194.36" y2="69.16"/><path class="511cdd8a-14e5-4d52-8b4d-ecc2e351b5bb" d="M544.23,524.41l.88-100.52,1.39-159.1.32-36.79c0-3.86-6-3.87-6,0L540,328.51l-1.39,159.1-.33,36.8c0,3.86,6,3.86,6,0Z" transform="translate(-349.47 -158.84)"/><line class="7c3da1cf-477d-4653-8d15-d9cbe0ce4cb2" x1="674.56" y1="168.13" x2="521.81" y2="196.18"/><path class="511cdd8a-14e5-4d52-8b4d-ecc2e351b5bb" d="M1023.23,324.08l-134,24.6-18.75,3.44c-3.8.7-2.19,6.48,1.59,5.79l134-24.61,18.75-3.44c3.8-.69,2.19-6.48-1.59-5.78Z" transform="translate(-349.47 -158.84)"/><line class="7c3da1cf-477d-4653-8d15-d9cbe0ce4cb2" x1="665.45" y1="504.41" x2="674.56" y2="168.13"/><path class="511cdd8a-14e5-4d52-8b4d-ecc2e351b5bb" d="M1017.92,663.25l3.08-113.6,4.9-181.08L1027,327c.1-3.86-5.9-3.86-6,0L1018,440.56l-4.9,181.09-1.13,41.6c-.1,3.86,5.9,3.86,6,0Z" transform="translate(-349.47 -158.84)"/><line class="7915ada0-59db-4b0a-9352-53cc27245165" x1="506.82" y1="651.05" x2="506.99" y2="634.71"/><line class="7915ada0-59db-4b0a-9352-53cc27245165" x1="44.19" y1="483.57" x2="44.19" y2="455.46"/><line class="7915ada0-59db-4b0a-9352-53cc27245165" x1="46.19" y1="455.46" x2="46.19" y2="484.57"/><circle class="d61ebc38-a97a-4fcd-a6e7-af63eee34353" cx="41.22" cy="23.02" r="23.02"/><line class="f5a92e7a-4d9f-4b15-96ca-b384273f3259" x1="5.03" y1="73.49" x2="25.35" y2="47.54"/><line class="f5a92e7a-4d9f-4b15-96ca-b384273f3259" x1="18.99" y1="44.76" x2="0.26" y2="56.27"/><line class="f5a92e7a-4d9f-4b15-96ca-b384273f3259" x1="32.18" y1="52.06" x2="22.31" y2="71.16"/></svg>